<svg width="28" height="28" viewBox="0 0 28 28" fill="none" xmlns="http://www.w3.org/2000/svg">
<g clip-path="url(#clip0_831_462)">
<path d="M16.5 25.7392C15.6936 25.9101 14.8573 26 14 26C7.37258 26 2 20.6274 2 14C2 7.37258 7.37258 2 14 2C20.6274 2 26 7.37258 26 14C26 14.508 25.9684 15.0086 25.9072 15.5" stroke="black" stroke-width="2"/>
<rect x="14" y="9.58579" width="6.24265" height="6.24265" rx="2" transform="rotate(45 14 9.58579)" stroke="black" stroke-width="2"/>
<path d="M18.749 19.599L18.243 19.94L17.506 19.06C18.7527 18.3267 19.8527 17.2743 20.806 15.903L21.961 16.167C21.7337 16.5117 21.587 16.728 21.521 16.816H25.14V17.674C24.8173 18.0847 24.458 18.488 24.062 18.884H26.504V22.503H24.018V24.406C24.018 24.7213 24.1463 24.879 24.403 24.879H26.031C26.163 24.879 26.262 24.8093 26.328 24.67C26.4013 24.5087 26.449 24.0723 26.471 23.361L27.56 23.702C27.472 24.8093 27.329 25.473 27.131 25.693C26.9477 25.891 26.6543 25.99 26.251 25.99H24.051C23.2663 25.99 22.874 25.5427 22.874 24.648V22.503H22.566C22.522 22.6277 22.4487 22.8073 22.346 23.042C21.7813 24.3033 20.4247 25.352 18.276 26.188L17.539 25.297C19.4163 24.6003 20.6447 23.746 21.224 22.734L21.334 22.503H18.749V19.599ZM22.621 18.884C22.9583 18.576 23.303 18.2313 23.655 17.85H20.696C20.3953 18.1873 20.047 18.532 19.651 18.884H22.621ZM25.393 21.425V19.951H23.05C23.028 20.4203 22.9693 20.9117 22.874 21.425H25.393ZM21.697 21.425C21.7923 20.9777 21.8583 20.4863 21.895 19.951H19.871V21.425H21.697Z" fill="#CC7629"/>
</g>
<defs>
<clipPath id="clip0_831_462">
<rect width="28" height="28" fill="white"/>
</clipPath>
</defs>
</svg>
