<svg width="28" height="28" viewBox="0 0 28 28" fill="none" xmlns="http://www.w3.org/2000/svg">
<g clip-path="url(#clip0_831_434)">
<path d="M16.5 25.7392C15.6936 25.9101 14.8573 26 14 26C7.37258 26 2 20.6274 2 14C2 7.37258 7.37258 2 14 2C20.6274 2 26 7.37258 26 14C26 14.508 25.9684 15.0086 25.9072 15.5" stroke="black" stroke-width="2"/>
<rect x="14" y="9.58579" width="6.24265" height="6.24265" rx="2" transform="rotate(45 14 9.58579)" stroke="black" stroke-width="2"/>
<path d="M17.814 19.731H21.697C21.7997 19.1003 21.8803 18.378 21.939 17.564H18.111V16.464H26.889V17.564H23.105C23.0317 18.422 22.951 19.1443 22.863 19.731H27.219V20.842H23.369C24.139 22.7487 25.547 24.2263 27.593 25.275L26.867 26.221C24.7697 25.0697 23.314 23.46 22.5 21.392C22.3167 21.9713 22.1223 22.4443 21.917 22.811C21.1837 24.109 19.9333 25.2457 18.166 26.221L17.429 25.275C19.0277 24.4537 20.1643 23.4783 20.839 22.349C21.0737 21.9603 21.2753 21.458 21.444 20.842H17.814V19.731Z" fill="#CC7629"/>
</g>
<defs>
<clipPath id="clip0_831_434">
<rect width="28" height="28" fill="white"/>
</clipPath>
</defs>
</svg>
