<svg width="28" height="28" viewBox="0 0 28 28" fill="none" xmlns="http://www.w3.org/2000/svg">
<g clip-path="url(#clip0_831_195)">
<path d="M16.5 25.7392C15.6936 25.9101 14.8573 26 14 26C7.37258 26 2 20.6274 2 14C2 7.37258 7.37258 2 14 2C20.6274 2 26 7.37258 26 14C26 14.508 25.9684 15.0086 25.9072 15.5" stroke="black" stroke-width="2"/>
<rect x="14" y="9.58579" width="6.24265" height="6.24265" rx="2" transform="rotate(45 14 9.58579)" stroke="black" stroke-width="2"/>
<path d="M20.619 20.039V21.667H24.964V20.039H20.619ZM24.964 18.972V17.432H20.619V18.972H24.964ZM20.553 22.734C20.399 24.1273 19.981 25.2897 19.299 26.221L18.419 25.418C19.0937 24.472 19.442 23.2437 19.464 21.733V16.332H26.13V24.956C26.13 25.682 25.756 26.045 25.008 26.045H23.6L23.292 24.923C23.8273 24.9597 24.2747 24.978 24.634 24.978C24.854 24.978 24.964 24.8313 24.964 24.538V22.734H20.553Z" fill="#CC7629"/>
</g>
<defs>
<clipPath id="clip0_831_195">
<rect width="28" height="28" fill="white"/>
</clipPath>
</defs>
</svg>
