<svg width="28" height="28" viewBox="0 0 28 28" fill="none" xmlns="http://www.w3.org/2000/svg">
<g clip-path="url(#clip0_831_406)">
<path d="M16.5 25.7392C15.6936 25.9101 14.8573 26 14 26C7.37258 26 2 20.6274 2 14C2 7.37258 7.37258 2 14 2C20.6274 2 26 7.37258 26 14C26 14.508 25.9684 15.0086 25.9072 15.5" stroke="black" stroke-width="2"/>
<rect x="14" y="9.58579" width="6.24265" height="6.24265" rx="2" transform="rotate(45 14 9.58579)" stroke="black" stroke-width="2"/>
<path d="M19.7148 26C19.8108 25.816 19.8748 25.584 19.9068 25.304C19.9468 25.024 19.9708 24.728 19.9788 24.416C19.9948 24.096 20.0108 23.788 20.0268 23.492C20.0428 23.212 20.0548 22.924 20.0628 22.628C20.0708 22.332 20.0748 22.032 20.0748 21.728C20.0748 21.304 20.0588 20.888 20.0268 20.48C20.0028 20.064 19.9548 19.684 19.8828 19.34C19.8508 19.156 19.7868 18.98 19.6908 18.812C19.6028 18.644 19.4908 18.56 19.3548 18.56C19.2828 18.56 19.2028 18.592 19.1148 18.656C19.0348 18.712 18.9428 18.82 18.8388 18.98C18.8308 18.996 18.8148 18.992 18.7908 18.968C18.7748 18.944 18.7708 18.924 18.7788 18.908C18.8428 18.708 18.9708 18.492 19.1628 18.26C19.3548 18.028 19.5588 17.836 19.7748 17.684C19.8868 17.604 19.9868 17.548 20.0748 17.516C20.1708 17.484 20.2588 17.468 20.3388 17.468C20.5788 17.468 20.7628 17.592 20.8908 17.84C21.0188 18.08 21.1108 18.352 21.1668 18.656C21.2228 18.96 21.2588 19.328 21.2748 19.76C21.2988 20.184 21.3108 20.628 21.3108 21.092C21.3108 21.58 21.3028 22.064 21.2868 22.544C21.2708 23.024 21.2508 23.452 21.2268 23.828C21.2028 24.204 21.1828 24.484 21.1668 24.668C21.4388 24.292 21.7348 23.848 22.0548 23.336C22.3748 22.824 22.6988 22.288 23.0268 21.728C23.3628 21.168 23.6788 20.624 23.9748 20.096C24.2708 19.56 24.5308 19.076 24.7548 18.644C24.9868 18.212 25.1548 17.872 25.2588 17.624H26.3388C26.2188 17.816 26.0268 18.12 25.7628 18.536C25.4988 18.944 25.1908 19.416 24.8388 19.952C24.4948 20.488 24.1308 21.052 23.7468 21.644C23.3628 22.228 22.9908 22.8 22.6308 23.36C22.2708 23.912 21.9508 24.404 21.6708 24.836C21.5188 25.084 21.3588 25.328 21.1908 25.568C21.0308 25.8 20.8308 25.94 20.5908 25.988C20.5668 25.996 20.5308 26 20.4828 26H19.7148Z" fill="#CC7629"/>
<path d="M19.7148 26L19.2715 25.7687L18.89 26.5H19.7148V26ZM19.9068 25.304L19.4117 25.2333L19.4101 25.2472L19.9068 25.304ZM19.9788 24.416L19.4793 24.391L19.479 24.4032L19.9788 24.416ZM20.0268 23.492L19.5276 23.4635L19.5276 23.465L20.0268 23.492ZM20.0628 22.628L19.563 22.6145L19.563 22.6145L20.0628 22.628ZM20.0268 20.48L19.5276 20.5088L19.5284 20.5191L20.0268 20.48ZM19.8828 19.34L19.3902 19.4257L19.3917 19.4341L19.3934 19.4424L19.8828 19.34ZM19.6908 18.812L19.2479 19.044L19.2522 19.0521L19.2567 19.0601L19.6908 18.812ZM19.1148 18.656L19.4016 19.0657L19.4089 19.0604L19.1148 18.656ZM18.8388 18.98L18.4196 18.7075L18.4042 18.7312L18.3916 18.7564L18.8388 18.98ZM18.7908 18.968L18.3748 19.2453L18.4023 19.2865L18.4373 19.3216L18.7908 18.968ZM18.7788 18.908L19.226 19.1316L19.2433 19.0971L19.255 19.0604L18.7788 18.908ZM19.1628 18.26L19.548 18.5788L19.548 18.5788L19.1628 18.26ZM19.7748 17.684L20.0626 18.0929L20.0654 18.0909L19.7748 17.684ZM20.0748 17.516L19.9167 17.0415L19.904 17.0461L20.0748 17.516ZM20.8908 17.84L20.4465 18.0693L20.4497 18.0753L20.8908 17.84ZM21.1668 18.656L21.6586 18.5654L21.6586 18.5654L21.1668 18.656ZM21.2748 19.76L20.7751 19.7785L20.7756 19.7883L21.2748 19.76ZM21.2268 23.828L21.7258 23.8599L21.7258 23.8598L21.2268 23.828ZM21.1668 24.668L20.6687 24.6247L20.5121 26.4262L21.5719 24.9611L21.1668 24.668ZM22.0548 23.336L22.4788 23.601L22.4788 23.601L22.0548 23.336ZM23.0268 21.728L22.5981 21.4707L22.5954 21.4753L23.0268 21.728ZM23.9748 20.096L24.411 20.3405L24.4125 20.3377L23.9748 20.096ZM24.7548 18.644L24.3143 18.4074L24.311 18.4138L24.7548 18.644ZM25.2588 17.624V17.124H24.9263L24.7977 17.4306L25.2588 17.624ZM26.3388 17.624L26.7628 17.889L27.241 17.124H26.3388V17.624ZM25.7628 18.536L26.1826 18.8076L26.185 18.8039L25.7628 18.536ZM24.8388 19.952L24.4209 19.6775L24.418 19.6819L24.8388 19.952ZM23.7468 21.644L24.1646 21.9187L24.1663 21.9161L23.7468 21.644ZM22.6308 23.36L23.0496 23.6331L23.0514 23.6304L22.6308 23.36ZM21.6708 24.836L21.2511 24.564L21.2445 24.5747L21.6708 24.836ZM21.1908 25.568L20.7812 25.2813L20.7792 25.2841L21.1908 25.568ZM20.5908 25.988L20.4928 25.4977L20.4622 25.5038L20.4327 25.5137L20.5908 25.988ZM20.1581 26.2313C20.2907 25.9772 20.367 25.6813 20.4036 25.3608L19.4101 25.2472C19.3827 25.4867 19.331 25.6548 19.2715 25.7687L20.1581 26.2313ZM20.4018 25.3747C20.4448 25.0737 20.4702 24.7582 20.4787 24.4288L19.479 24.4032C19.4714 24.6978 19.4488 24.9743 19.4119 25.2333L20.4018 25.3747ZM20.4782 24.441C20.4942 24.1216 20.5101 23.8143 20.5261 23.519L19.5276 23.465C19.5115 23.7617 19.4955 24.0704 19.4795 24.391L20.4782 24.441ZM20.526 23.5205C20.5423 23.2353 20.5545 22.9422 20.5626 22.6415L19.563 22.6145C19.5551 22.9058 19.5433 23.1887 19.5276 23.4635L20.526 23.5205ZM20.5626 22.6415C20.5708 22.3409 20.5748 22.0364 20.5748 21.728H19.5748C19.5748 22.0276 19.5709 22.3231 19.563 22.6145L20.5626 22.6415ZM20.5748 21.728C20.5748 21.2914 20.5584 20.8624 20.5253 20.4409L19.5284 20.5191C19.5593 20.9136 19.5748 21.3166 19.5748 21.728H20.5748ZM20.526 20.4512C20.5008 20.0148 20.4501 19.6098 20.3722 19.2376L19.3934 19.4424C19.4595 19.7582 19.5048 20.1131 19.5277 20.5088L20.526 20.4512ZM20.3754 19.2543C20.3331 19.0112 20.2487 18.7804 20.1249 18.5639L19.2567 19.0601C19.325 19.1796 19.3685 19.3008 19.3902 19.4257L20.3754 19.2543ZM20.1337 18.58C19.9983 18.3213 19.7478 18.06 19.3548 18.06V19.06C19.3364 19.06 19.3146 19.057 19.2919 19.0493C19.2694 19.0417 19.2522 19.0316 19.2408 19.023C19.2201 19.0074 19.2268 19.0038 19.2479 19.044L20.1337 18.58ZM19.3548 18.06C19.1356 18.06 18.9529 18.1555 18.8207 18.2516L19.4089 19.0604C19.4277 19.0467 19.4335 19.0454 19.4265 19.0482C19.4188 19.0513 19.3936 19.06 19.3548 19.06V18.06ZM18.8281 18.2464C18.6663 18.3596 18.5317 18.5351 18.4196 18.7075L19.258 19.2525C19.302 19.1848 19.3382 19.1364 19.3664 19.1032C19.3961 19.0684 19.4082 19.061 19.4016 19.0656L18.8281 18.2464ZM18.3916 18.7564C18.422 18.6957 18.4862 18.6018 18.6077 18.541C18.7344 18.4777 18.8579 18.4829 18.9421 18.5039C19.0187 18.5231 19.0708 18.5563 19.0941 18.5726C19.1201 18.5909 19.1371 18.6072 19.1444 18.6144L18.4373 19.3216C18.4586 19.3429 18.5507 19.4368 18.6996 19.4741C18.7918 19.4971 18.9223 19.5018 19.0549 19.4355C19.1825 19.3717 19.2517 19.2723 19.286 19.2036L18.3916 18.7564ZM19.2069 18.6907C19.226 18.7194 19.3393 18.905 19.226 19.1316L18.3316 18.6844C18.2023 18.943 18.3236 19.1686 18.3748 19.2453L19.2069 18.6907ZM19.255 19.0604C19.2931 18.9414 19.3805 18.7812 19.548 18.5788L18.7776 17.9412C18.5612 18.2028 18.3925 18.4746 18.3026 18.7556L19.255 19.0604ZM19.548 18.5788C19.7156 18.3763 19.8876 18.216 20.0626 18.0929L19.4871 17.2751C19.2301 17.456 18.9941 17.6797 18.7776 17.9412L19.548 18.5788ZM20.0654 18.0909C20.1561 18.0261 20.2152 17.997 20.2457 17.9859L19.904 17.0461C19.7585 17.099 19.6175 17.1819 19.4842 17.2771L20.0654 18.0909ZM20.2329 17.9903C20.2908 17.971 20.3246 17.968 20.3388 17.968V16.968C20.193 16.968 20.0508 16.997 19.9167 17.0417L20.2329 17.9903ZM20.3388 17.968C20.3554 17.968 20.3643 17.9701 20.368 17.9711C20.3713 17.9721 20.3739 17.9733 20.3774 17.9756C20.384 17.9801 20.4113 18.0011 20.4465 18.0693L21.3351 17.6107C21.2424 17.4309 21.1136 17.2659 20.9363 17.1464C20.7549 17.0241 20.5499 16.968 20.3388 16.968V17.968ZM20.4497 18.0753C20.5504 18.2642 20.6272 18.4863 20.6751 18.7466L21.6586 18.5654C21.5945 18.2177 21.4872 17.8958 21.332 17.6047L20.4497 18.0753ZM20.6751 18.7466C20.7254 19.0195 20.7597 19.362 20.7752 19.7785L21.7745 19.7415C21.7579 19.294 21.7203 18.9005 21.6586 18.5654L20.6751 18.7466ZM20.7756 19.7883C20.799 20.202 20.8108 20.6366 20.8108 21.092H21.8108C21.8108 20.6194 21.7986 20.166 21.774 19.7317L20.7756 19.7883ZM20.8108 21.092C20.8108 21.5745 20.8029 22.053 20.7871 22.5273L21.7866 22.5607C21.8027 22.075 21.8108 21.5855 21.8108 21.092H20.8108ZM20.7871 22.5273C20.7712 23.0036 20.7514 23.4264 20.7278 23.7961L21.7258 23.8598C21.7502 23.4776 21.7704 23.0444 21.7866 22.5607L20.7871 22.5273ZM20.7278 23.7961C20.7039 24.1714 20.6842 24.4467 20.6687 24.6247L21.6649 24.7113C21.6815 24.5213 21.7018 24.2366 21.7258 23.8599L20.7278 23.7961ZM21.5719 24.9611C21.8522 24.5737 22.1545 24.1199 22.4788 23.601L21.6308 23.071C21.3151 23.5761 21.0255 24.0103 20.7617 24.3749L21.5719 24.9611ZM22.4788 23.601C22.8015 23.0846 23.128 22.5445 23.4583 21.9807L22.5954 21.4753C22.2696 22.0315 21.9481 22.5634 21.6308 23.071L22.4788 23.601ZM23.4556 21.9852C23.7939 21.4214 24.1124 20.8731 24.411 20.3405L23.5387 19.8515C23.2453 20.3749 22.9318 20.9146 22.5981 21.4708L23.4556 21.9852ZM24.4125 20.3377C24.7101 19.7988 24.9723 19.3109 25.1987 18.8742L24.311 18.4138C24.0894 18.8411 23.8315 19.3212 23.5371 19.8543L24.4125 20.3377ZM25.1953 18.8806C25.4298 18.4439 25.6067 18.0874 25.7199 17.8174L24.7977 17.4306C24.703 17.6566 24.5438 17.9801 24.3143 18.4074L25.1953 18.8806ZM25.2588 18.124H26.3388V17.124H25.2588V18.124ZM25.9148 17.359C25.7958 17.5494 25.6046 17.8522 25.3407 18.2681L26.185 18.8039C26.4491 18.3878 26.6419 18.0826 26.7628 17.889L25.9148 17.359ZM25.343 18.2644C25.0798 18.6712 24.7725 19.1422 24.4209 19.6775L25.2568 20.2265C25.6092 19.6898 25.9178 19.2168 26.1826 18.8076L25.343 18.2644ZM24.418 19.6819C24.0745 20.2172 23.711 20.7805 23.3273 21.3719L24.1663 21.9161C24.5507 21.3235 24.9151 20.7588 25.2596 20.2221L24.418 19.6819ZM23.3291 21.3693C22.9442 21.9547 22.5712 22.5281 22.2102 23.0896L23.0514 23.6304C23.4104 23.0719 23.7815 22.5013 24.1646 21.9187L23.3291 21.3693ZM22.212 23.0869C21.8518 23.6392 21.5316 24.1316 21.2513 24.5641L22.0904 25.1079C22.3701 24.6764 22.6898 24.1848 23.0496 23.6331L22.212 23.0869ZM21.2445 24.5747C21.0979 24.814 20.9434 25.0495 20.7812 25.2813L21.6004 25.8547C21.7742 25.6065 21.9398 25.354 22.0971 25.0973L21.2445 24.5747ZM20.7792 25.2841C20.6809 25.4267 20.586 25.4791 20.4928 25.4977L20.6889 26.4783C21.0756 26.4009 21.3807 26.1733 21.6024 25.8519L20.7792 25.2841ZM20.4327 25.5137C20.4499 25.5079 20.4637 25.5047 20.4725 25.503C20.4815 25.5012 20.4878 25.5004 20.4906 25.5001C20.4957 25.4995 20.4939 25.5 20.4828 25.5V26.5C20.5454 26.5 20.6468 26.4964 20.7489 26.4623L20.4327 25.5137ZM20.4828 25.5H19.7148V26.5H20.4828V25.5Z" fill="#CC7629"/>
</g>
<defs>
<clipPath id="clip0_831_406">
<rect width="28" height="28" fill="white"/>
</clipPath>
</defs>
</svg>
