<svg width="28" height="28" viewBox="0 0 28 28" fill="none" xmlns="http://www.w3.org/2000/svg">
<path d="M25 20V4H4C3.44772 4 3 4.44772 3 5V23.5" stroke="black" stroke-width="2"/>
<path d="M13.288 16.4657L19.7922 7.92893C20.0588 7.57912 19.7764 7.0804 19.3393 7.12897L8.47221 8.33642C7.99655 8.38927 7.85979 9.01588 8.27018 9.26211L11.7803 11.3682C11.9182 11.4509 12.0079 11.595 12.0213 11.7554L12.392 16.2042C12.43 16.6606 13.0105 16.83 13.288 16.4657Z" stroke="#CC7629" stroke-width="2"/>
<line x1="6" y1="23" x2="25" y2="23" stroke="black" stroke-width="2" stroke-linecap="round"/>
<path d="M26 20H6C4.34315 20 3 21.3431 3 23V23C3 24.6569 4.34315 26 6 26H26" stroke="black" stroke-width="2"/>
</svg>
