<svg width="24" height="24" viewBox="0 0 24 24" fill="none" xmlns="http://www.w3.org/2000/svg">
<path d="M4 18C3.45 18 2.979 17.804 2.587 17.412C2.195 17.02 1.99934 16.5493 2 16V5C2 4.45 2.196 3.979 2.588 3.587C2.98 3.195 3.45067 2.99934 4 3H20C20.55 3 21.021 3.196 21.413 3.588C21.805 3.98 22.0007 4.45067 22 5V16C22 16.55 21.804 17.021 21.412 17.413C21.02 17.805 20.5493 18.0007 20 18H4ZM4 16H20V5H4V16ZM2 21C1.71667 21 1.479 20.904 1.287 20.712C1.095 20.52 0.999337 20.2827 1 20C1 19.7167 1.096 19.479 1.288 19.287C1.48 19.095 1.71734 18.9993 2 19H22C22.2833 19 22.521 19.096 22.713 19.288C22.905 19.48 23.0007 19.7173 23 20C23 20.2833 22.904 20.521 22.712 20.713C22.52 20.905 22.2827 21.0007 22 21H2Z" fill="black"/>
<path fill-rule="evenodd" clip-rule="evenodd" d="M14.925 14.525C15.075 14.675 15.254 14.746 15.462 14.738C15.67 14.73 15.8493 14.6507 16 14.5C16.15 14.35 16.225 14.171 16.225 13.963C16.225 13.755 16.15 13.5757 16 13.425L14.45 11.9C14.6333 11.6167 14.771 11.3167 14.863 11C14.955 10.6833 15.0007 10.35 15 10C15 9.01667 14.654 8.18734 13.962 7.512C13.27 6.83667 12.4493 6.49934 11.5 6.5C10.55 6.5 9.729 6.83734 9.037 7.512C8.345 8.18667 7.99934 9.016 8 10C8 10.9833 8.346 11.8127 9.038 12.488C9.73 13.1633 10.5507 13.5007 11.5 13.5C11.85 13.5 12.1793 13.4623 12.488 13.387C12.7967 13.3117 13.1007 13.1827 13.4 13L14.925 14.525ZM11.5 12C10.95 12 10.479 11.804 10.087 11.412C9.695 11.02 9.49934 10.5493 9.5 10C9.5 9.45 9.696 8.979 10.088 8.587C10.48 8.195 10.9507 7.99934 11.5 8C12.0333 8 12.5 8.196 12.9 8.588C13.3 8.98 13.5 9.45067 13.5 10C13.5 10.55 13.304 11.021 12.912 11.413C12.52 11.805 12.0493 12.0007 11.5 12Z" fill="#CC7629"/>
</svg>
