<svg width="25" height="24" viewBox="0 0 25 24" fill="none" xmlns="http://www.w3.org/2000/svg">
<path d="M21.4625 7.88178L14.7963 2.70156C14.2112 2.24687 13.4912 2 12.75 2C12.0088 2 11.2888 2.24687 10.7037 2.70156L4.03625 7.88178C3.63555 8.1931 3.31137 8.59179 3.08844 9.04739C2.86552 9.503 2.74976 10.0035 2.75 10.5106V19.5023C2.75 20.1647 3.01339 20.8 3.48223 21.2684C3.95107 21.7369 4.58696 22 5.25 22H20.25C20.913 22 21.5489 21.7369 22.0178 21.2684C22.4866 20.8 22.75 20.1647 22.75 19.5023V10.5106C22.75 9.4828 22.275 8.51245 21.4625 7.88178Z" stroke="black" stroke-width="2" stroke-linecap="round" stroke-linejoin="round"/>
<path d="M9 9.49817L16.5 16.9982" stroke="#CC7629" stroke-width="2" stroke-linecap="round"/>
<path d="M16.5 9.49817L9 16.9982" stroke="#CC7629" stroke-width="2" stroke-linecap="round"/>
</svg>
