<svg width="24" height="24" viewBox="0 0 24 24" fill="none" xmlns="http://www.w3.org/2000/svg">
<path d="M20.7125 7.88178L14.0463 2.70156C13.4612 2.24687 12.7412 2 12 2C11.2588 2 10.5388 2.24687 9.95375 2.70156L3.28625 7.88178C2.88555 8.1931 2.56137 8.59179 2.33844 9.04739C2.11552 9.503 1.99976 10.0035 2 10.5106V19.5023C2 20.1647 2.26339 20.8 2.73223 21.2684C3.20107 21.7369 3.83696 22 4.5 22H19.5C20.163 22 20.7989 21.7369 21.2678 21.2684C21.7366 20.8 22 20.1647 22 19.5023V10.5106C22 9.4828 21.525 8.51245 20.7125 7.88178Z" stroke="black" stroke-width="2" stroke-linecap="round" stroke-linejoin="round"/>
<path d="M6.39612 9.76529L7.42301 10.7922L9.13451 9.08069" stroke="#CC7629" stroke-width="2" stroke-linecap="round" stroke-linejoin="round"/>
<path d="M6.39612 13.8729L7.42301 14.8998L9.13451 13.1883" stroke="#CC7629" stroke-width="2" stroke-linecap="round" stroke-linejoin="round"/>
<path d="M6.39612 17.9805L7.42301 19.0074L9.13451 17.2959" stroke="#CC7629" stroke-width="2" stroke-linecap="round" stroke-linejoin="round"/>
<path d="M11.5305 10.1076H17.6919" stroke="#CC7629" stroke-width="2" stroke-linecap="round" stroke-linejoin="round"/>
<path d="M11.5305 14.2152H17.6919" stroke="#CC7629" stroke-width="2" stroke-linecap="round" stroke-linejoin="round"/>
<path d="M11.5305 18.3228H17.6919" stroke="#CC7629" stroke-width="2" stroke-linecap="round" stroke-linejoin="round"/>
</svg>
