<svg width="25" height="24" viewBox="0 0 25 24" fill="none" xmlns="http://www.w3.org/2000/svg">
<path d="M20.9625 7.88178L14.2963 2.70156C13.7112 2.24687 12.9912 2 12.25 2C11.5088 2 10.7888 2.24687 10.2037 2.70156L3.53625 7.88178C3.13555 8.1931 2.81137 8.59179 2.58844 9.04739C2.36552 9.503 2.24976 10.0035 2.25 10.5106V19.5023C2.25 20.1647 2.51339 20.8 2.98223 21.2684C3.45107 21.7369 4.08696 22 4.75 22H19.75C20.413 22 21.0489 21.7369 21.5178 21.2684C21.9866 20.8 22.25 20.1647 22.25 19.5023V10.5106C22.25 9.4828 21.775 8.51245 20.9625 7.88178Z" stroke="black" stroke-width="2" stroke-linecap="round" stroke-linejoin="round"/>
<path d="M8.398 13.428C9.254 13.708 10.07 14.06 10.846 14.484L10.318 15.288H12.298C12.402 14.944 12.47 14.612 12.502 14.292V12.336H13.714V14.292C13.69 14.644 13.642 14.976 13.57 15.288H17.362V16.476H13.102L12.982 16.668C14.47 17.1 15.846 17.612 17.11 18.204L16.402 19.296C15.058 18.56 13.674 17.968 12.25 17.52C11.386 18.264 9.97 18.84 8.002 19.248L7.33 18.18C9.314 17.788 10.654 17.304 11.35 16.728L11.602 16.476H7.234V15.288H9.97C9.274 14.88 8.554 14.552 7.81 14.304L8.398 13.428ZM9.406 12.18C10.27 12.412 11.098 12.716 11.89 13.092L11.266 14.04C10.458 13.608 9.642 13.276 8.818 13.044L9.406 12.18ZM7.366 10.908H11.686V10.104H8.254V8.976H11.686V8.16H12.91V8.976H16.27V10.104H12.91V10.908H17.11V11.688C16.934 12.504 16.694 13.308 16.39 14.1L15.214 13.764C15.446 13.3 15.654 12.728 15.838 12.048H7.366V10.908Z" fill="#CC7629"/>
</svg>
