<svg width="25" height="24" viewBox="0 0 25 24" fill="none" xmlns="http://www.w3.org/2000/svg">
<path d="M21.4625 7.88178L14.7963 2.70156C14.2112 2.24687 13.4912 2 12.75 2C12.0088 2 11.2888 2.24687 10.7037 2.70156L4.03625 7.88178C3.63555 8.1931 3.31137 8.59179 3.08844 9.04739C2.86552 9.503 2.74976 10.0035 2.75 10.5106V19.5023C2.75 20.1647 3.01339 20.8 3.48223 21.2684C3.95107 21.7369 4.58696 22 5.25 22H20.25C20.913 22 21.5489 21.7369 22.0178 21.2684C22.4866 20.8 22.75 20.1647 22.75 19.5023V10.5106C22.75 9.4828 22.275 8.51245 21.4625 7.88178Z" stroke="black" stroke-width="2" stroke-linecap="round" stroke-linejoin="round"/>
<path d="M8.694 11.868C9.638 12.236 10.466 12.664 11.178 13.152L10.53 14.136C9.746 13.536 8.938 13.068 8.106 12.732L8.694 11.868ZM9.774 10.236C10.718 10.588 11.574 11 12.342 11.472L11.694 12.456C10.878 11.88 10.042 11.432 9.186 11.112L9.774 10.236ZM12.822 10.428H14.058V12.96C14.034 13.48 13.966 13.984 13.854 14.472H18.138V15.696H13.446L13.254 16.08C14.902 16.768 16.458 17.532 17.922 18.372L17.046 19.332C15.638 18.468 14.158 17.692 12.606 17.004C12.59 17.02 12.582 17.032 12.582 17.04C11.694 17.984 10.27 18.708 8.31 19.212L7.602 18.108C9.602 17.604 10.954 16.964 11.658 16.188C11.786 16.02 11.902 15.856 12.006 15.696H7.554V14.472H12.558C12.694 14.024 12.782 13.52 12.822 12.96V10.428ZM7.974 8.736H17.298V9.516C17.114 10.236 16.886 10.936 16.614 11.616L15.45 11.28C15.682 10.848 15.866 10.384 16.002 9.888H7.974V8.736Z" fill="#CC7629"/>
</svg>
