<svg width="25" height="24" viewBox="0 0 25 24" fill="none" xmlns="http://www.w3.org/2000/svg">
<path d="M20.9625 7.88178L14.2963 2.70156C13.7112 2.24687 12.9912 2 12.25 2C11.5088 2 10.7888 2.24687 10.2037 2.70156L3.53625 7.88178C3.13555 8.1931 2.81137 8.59179 2.58844 9.04739C2.36552 9.503 2.24976 10.0035 2.25 10.5106V19.5023C2.25 20.1647 2.51339 20.8 2.98223 21.2684C3.45107 21.7369 4.08696 22 4.75 22H19.75C20.413 22 21.0489 21.7369 21.5178 21.2684C21.9866 20.8 22.25 20.1647 22.25 19.5023V10.5106C22.25 9.4828 21.775 8.51245 20.9625 7.88178Z" stroke="black" stroke-width="2" stroke-linecap="round" stroke-linejoin="round"/>
<path d="M9.25 11V18" stroke="#CC7629" stroke-width="2" stroke-linecap="round" stroke-linejoin="round"/>
<path d="M16.25 16L16.25 9" stroke="#CC7629" stroke-width="2" stroke-linecap="round" stroke-linejoin="round"/>
<path d="M6.25 12L9.25 9L12.25 12" stroke="#CC7629" stroke-width="2" stroke-linecap="round" stroke-linejoin="round"/>
<path d="M19.25 15L16.25 18L13.25 15" stroke="#CC7629" stroke-width="2" stroke-linecap="round" stroke-linejoin="round"/>
</svg>
