<svg width="18" height="18" viewBox="0 0 18 18" fill="none" xmlns="http://www.w3.org/2000/svg">
<path d="M16.7603 15.9651L14.0783 13.0956C15.1669 11.7863 15.7625 10.1535 15.7625 8.43609C15.7625 4.40552 12.4818 1.12482 8.44823 1.12482C4.41766 1.12482 1.13696 4.40552 1.13696 8.43609C1.13696 12.4667 4.41766 15.7474 8.44823 15.7474C9.5035 15.7474 10.5225 15.5266 11.4749 15.0912C11.7592 14.9612 11.8831 14.6286 11.7531 14.3474C11.6231 14.0632 11.2905 13.9392 11.0093 14.0692C10.202 14.4351 9.34022 14.6225 8.44823 14.6225C5.03752 14.6225 2.26177 11.8468 2.26177 8.43609C2.26177 5.02537 5.03752 2.24963 8.44823 2.24963C11.859 2.24963 14.6347 5.02537 14.6347 8.43609C14.6347 10.0417 14.0209 11.5626 12.9112 12.7207C12.6965 12.9444 12.7026 13.3012 12.9263 13.5159C12.9445 13.531 12.9656 13.537 12.9838 13.5522C12.9989 13.5733 13.008 13.6005 13.0261 13.6217L15.9349 16.7331C16.0437 16.851 16.1949 16.9115 16.3461 16.9115C16.4852 16.9115 16.6213 16.8601 16.7301 16.7603C16.9599 16.5486 16.972 16.1918 16.7603 15.9651Z" fill="#9E8354"/>
</svg>
