<svg width="24" height="24" viewBox="0 0 24 24" fill="none" xmlns="http://www.w3.org/2000/svg">
<path d="M6 21C5.45 21 4.979 20.7984 4.587 20.3952C4.195 19.992 3.99934 19.5079 4 18.9429V9.68571C4 9.36 4.071 9.05143 4.213 8.76C4.355 8.46857 4.55067 8.22857 4.8 8.04L10.8 3.41143C10.9833 3.27429 11.175 3.17143 11.375 3.10286C11.575 3.03429 11.7833 3 12 3C12.2167 3 12.425 3.03429 12.625 3.10286C12.825 3.17143 13.0167 3.27429 13.2 3.41143L19.2 8.04C19.45 8.22857 19.646 8.46857 19.788 8.76C19.93 9.05143 20.0007 9.36 20 9.68571V18.9429C20 19.5086 19.804 19.993 19.412 20.3962C19.02 20.7994 18.5493 21.0007 18 21H15C14.4477 21 14 20.5523 14 20V16.5C14 15.9477 13.5523 15.5 13 15.5H11C10.4477 15.5 10 15.9477 10 16.5V20C10 20.5523 9.55228 21 9 21H6Z" stroke="#CC7629" stroke-width="2"/>
<path d="M8 11H16" stroke="#CC7629" stroke-width="2" stroke-linecap="round"/>
</svg>
