<svg width="24" height="24" viewBox="0 0 24 24" fill="none" xmlns="http://www.w3.org/2000/svg">
<path d="M3 20.4836L4.60348 16.7891C3.37673 15.047 2.82767 12.9168 3.05932 10.7984C3.29098 8.68001 4.28744 6.719 5.86169 5.2834C7.43594 3.8478 9.47977 3.0363 11.6096 3.00119C13.7395 2.96608 15.8089 3.70977 17.4296 5.0927C19.0503 6.47563 20.1107 8.40273 20.412 10.5123C20.7133 12.622 20.2347 14.7691 19.066 16.5507C17.8973 18.3324 16.1189 19.6261 14.0644 20.1891C12.01 20.7521 9.82075 20.5457 7.90763 19.6086L3 20.4836Z" stroke="black" stroke-width="2" stroke-linecap="round" stroke-linejoin="round"/>
<path fill-rule="evenodd" clip-rule="evenodd" d="M7.39143 7.39143C7.71318 7.06967 8.14958 6.88892 8.6046 6.88892C9.05963 6.88892 9.49602 7.06967 9.81778 7.39143C10.1395 7.71318 10.3203 8.14958 10.3203 8.6046V9.74839C10.3203 10.2034 10.1395 10.6398 9.81778 10.9616C9.70208 11.0773 9.57155 11.1747 9.43067 11.2521C9.65536 11.8977 10.024 12.491 10.5165 12.9835C11.0091 13.4761 11.6023 13.8447 12.2479 14.0694C12.3253 13.9285 12.4228 13.798 12.5385 13.6823C12.8602 13.3605 13.2966 13.1798 13.7517 13.1798H14.8955C15.3505 13.1798 15.7869 13.3605 16.1086 13.6823C16.4304 14.004 16.6111 14.4404 16.6111 14.8955C16.6111 15.3505 16.4304 15.7869 16.1086 16.1086C15.7869 16.4304 15.3505 16.6111 14.8955 16.6111H13.7517C11.9315 16.6111 10.186 15.8881 8.89897 14.6011C7.61195 13.3141 6.88892 11.5685 6.88892 9.74839V8.6046C6.88892 8.14958 7.06967 7.71318 7.39143 7.39143Z" fill="#CC7629"/>
</svg>
